<?xml version="1.0" standalone="no"?>
<!DOCTYPE svg PUBLIC "-//W3C//DTD SVG 20010904//EN"
 "http://www.w3.org/TR/2001/REC-SVG-20010904/DTD/svg10.dtd">
<svg version="1.0" xmlns="http://www.w3.org/2000/svg"
 width="300.000000pt" height="300.000000pt" viewBox="0 0 300.000000 300.000000"
 preserveAspectRatio="xMidYMid meet">
<metadata>
Created by potrace 1.10, written by Peter Selinger 2001-2011
</metadata>
<g transform="translate(0.000000,300.000000) scale(0.100000,-0.100000)"
fill="#000000" stroke="none">
<path d="M1355 2675 c-157 -64 -305 -153 -372 -222 -12 -13 -38 -51 -57 -86
-27 -47 -61 -85 -135 -149 -54 -48 -110 -102 -124 -120 -27 -35 -39 -98 -52
-278 -7 -85 -28 -206 -38 -216 -20 -20 -367 -144 -405 -144 -9 0 -26 -7 -37
-16 -19 -14 -19 -16 -2 -133 39 -272 172 -549 358 -745 211 -223 491 -373 787
-422 145 -24 402 -14 538 20 182 45 314 106 465 213 158 111 262 218 362 368
76 116 96 155 146 295 46 132 66 214 76 317 l7 72 -34 15 c-18 8 -97 35 -175
60 -79 25 -171 58 -206 74 l-63 29 -12 74 c-6 41 -17 128 -22 194 -18 212 -15
206 -170 341 -76 67 -109 103 -137 153 -41 73 -72 106 -153 161 -121 81 -356
190 -411 190 -13 0 -73 -20 -134 -45z m85 -100 c0 -2 -24 -17 -52 -31 -147
-74 -285 -189 -317 -264 -16 -37 -36 -60 -79 -92 -31 -23 -81 -62 -110 -86
-29 -25 -55 -43 -57 -40 -5 5 80 83 161 147 28 22 45 45 53 74 19 63 35 82
124 148 109 82 277 169 277 144z m190 -28 c64 -30 144 -81 221 -139 60 -45 68
-56 84 -108 16 -53 24 -63 105 -130 87 -71 161 -142 114 -110 -11 8 -66 49
-121 90 -80 61 -103 83 -118 119 -10 25 -33 61 -51 81 -42 46 -177 143 -268
193 -75 41 -49 44 34 4z m-170 -281 c0 -3 -27 -19 -61 -37 -61 -33 -142 -103
-171 -149 -9 -14 -19 -22 -22 -19 -11 10 16 73 43 102 39 43 211 126 211 103z
m170 -37 c78 -36 127 -81 140 -128 12 -44 3 -54 -18 -21 -30 47 -119 125 -175
154 -100 50 -61 46 53 -5z m-671 -176 c-5 -21 -17 -73 -26 -115 -10 -43 -20
-78 -23 -78 -4 0 -14 35 -23 78 l-17 77 42 37 c24 21 46 38 49 38 4 0 3 -17
-2 -37z m1108 1 c34 -28 43 -42 40 -58 -3 -11 -11 -47 -17 -78 -6 -32 -15 -58
-18 -58 -4 0 -17 44 -29 98 -12 53 -24 105 -28 115 -11 26 3 21 52 -19z m-824
-425 c86 -44 107 -83 35 -68 -29 7 -52 20 -70 42 -45 53 -34 61 35 26z m557
14 c0 -23 -52 -68 -90 -79 -25 -7 -46 -11 -49 -8 -12 11 19 41 69 67 56 28 70
32 70 20z m-748 -156 c-18 -22 55 -73 116 -82 29 -4 52 -4 52 0 0 3 -12 17
-27 30 l-28 24 55 -5 c76 -8 80 -10 80 -42 0 -18 12 -43 33 -66 l32 -38 63 12
c46 8 78 8 124 0 l63 -12 32 36 c22 24 33 46 33 66 0 34 3 36 80 44 l55 5 -35
-30 c-33 -28 -33 -29 -10 -29 46 1 99 18 129 41 25 20 30 29 26 54 -5 28 -3
26 26 -17 l30 -46 -18 -36 c-12 -23 -48 -55 -103 -94 -47 -32 -90 -70 -97 -83
-21 -44 -43 -141 -43 -193 0 -27 -7 -85 -16 -130 -14 -67 -22 -86 -48 -109
-46 -41 -82 -58 -140 -64 -69 -7 -127 10 -179 55 -42 35 -45 41 -60 122 -9 47
-18 118 -22 159 -3 41 -13 97 -23 124 -15 43 -28 58 -96 108 -43 33 -82 59
-86 59 -9 0 -50 66 -50 80 0 16 55 91 58 80 2 -6 -1 -16 -6 -23z m488 -9 c20
-14 34 -32 35 -46 2 -21 -2 -23 -24 -17 -65 16 -82 16 -111 2 -27 -14 -32 -14
-37 -1 -8 22 4 42 39 64 42 25 57 25 98 -2z m972 -95 c57 -20 111 -43 122 -52
29 -24 156 -191 156 -204 -1 -7 -15 6 -33 28 -98 123 -146 162 -255 210 -59
26 -109 49 -111 51 -12 11 27 1 121 -33z m-1943 23 c-2 -2 -47 -22 -101 -45
-81 -36 -106 -52 -155 -104 -32 -34 -72 -79 -87 -100 -16 -21 -31 -35 -33 -33
-7 7 109 165 144 197 15 15 69 40 118 57 79 28 127 39 114 28z m1834 -184 c61
-91 83 -147 67 -167 -20 -24 -28 -18 -40 25 -6 23 -26 78 -45 123 -49 114 -47
115 18 19z m-1803 -6 c-16 -36 -36 -90 -46 -121 -18 -55 -29 -63 -47 -34 -11
17 19 84 75 172 43 67 52 58 18 -17z m-315 -216 c46 -91 24 -95 -34 -7 -22 35
-41 66 -41 70 0 4 9 7 20 7 14 0 29 -19 55 -70z m2485 62 c0 -20 -81 -132 -95
-132 -12 0 -7 16 20 70 26 51 41 70 55 70 11 0 20 -4 20 -8z m-1559 -105 c-21
-21 -10 -63 32 -128 23 -37 56 -77 74 -89 56 -39 223 -49 320 -19 52 16 143
149 143 209 0 35 -19 32 -21 -3 -1 -17 -2 -18 -6 -4 -2 9 3 38 13 63 l18 46
18 -67 19 -67 -27 -46 c-37 -63 -103 -132 -141 -148 -44 -19 -282 -19 -326 0
-38 16 -104 85 -141 148 l-26 45 17 67 18 67 13 -32 c9 -22 10 -35 3 -42z m16
-39 c-3 -7 -5 -2 -5 12 0 14 2 19 5 13 2 -7 2 -19 0 -25z m-867 -70 c0 -13
-12 -9 -26 10 -7 9 -13 24 -13 32 -1 10 6 6 19 -10 11 -14 20 -28 20 -32z
m2300 35 c0 -5 -11 -21 -25 -38 l-25 -30 10 29 c6 16 13 33 16 37 6 11 24 12
24 2z"/>
<path d="M1056 1418 c10 -14 21 -24 23 -22 3 3 -6 15 -18 27 l-24 22 19 -27z"/>
<path d="M1888 1386 c-19 -24 -24 -37 -16 -42 6 -4 8 -3 5 3 -4 6 0 16 9 24
14 11 38 49 32 49 -2 0 -15 -15 -30 -34z"/>
<path d="M1109 1352 c7 -12 18 -22 26 -22 7 0 15 -5 17 -12 3 -8 9 -8 24 0 18
11 18 11 1 12 -11 0 -33 10 -49 22 l-30 21 11 -21z"/>
<path d="M1820 1340 c-8 -5 -36 -19 -62 -30 l-48 -20 0 -64 c0 -56 -3 -64 -21
-69 -15 -4 -23 1 -30 20 l-10 26 -24 -23 c-25 -23 -25 -26 -25 -186 0 -133 3
-164 15 -174 13 -11 20 -9 40 10 24 23 25 27 25 172 0 86 4 148 9 148 6 0 12
-17 14 -37 l4 -38 1 42 c1 23 7 45 12 48 6 3 10 21 10 38 1 38 14 58 60 86 19
11 30 21 24 21 -6 0 -30 -14 -52 -30 -28 -20 -42 -26 -42 -16 0 7 10 20 23 28
26 17 98 43 110 40 5 -1 6 2 2 8 -7 12 -15 12 -35 0z"/>
<path d="M1180 1303 c0 -4 14 -16 30 -25 17 -9 30 -14 30 -10 0 4 -13 16 -30
25 -16 10 -30 15 -30 10z"/>
<path d="M1246 1288 c4 -6 9 -34 10 -62 2 -28 7 -73 12 -101 9 -48 9 -48 11
-12 0 20 6 37 11 37 6 0 10 -56 10 -148 0 -146 0 -149 25 -172 22 -21 27 -22
40 -9 11 11 14 49 16 173 1 158 1 159 -25 184 l-25 26 -10 -27 c-17 -43 -39
-24 -46 41 -8 70 -12 82 -25 82 -6 0 -8 -5 -4 -12z"/>
<path d="M1462 1178 c-19 -21 -21 -36 -23 -180 l-2 -158 27 -21 26 -20 26 20
27 21 -2 161 c-2 153 -3 163 -24 180 -28 23 -29 23 -55 -3z"/>
</g>
</svg>
